<svg width="14" height="24" viewBox="0 0 14 24" fill="none" xmlns="http://www.w3.org/2000/svg">
<path d="M11.2526 23.0095C10.9882 23.0103 10.727 22.9567 10.4882 22.8526C10.2493 22.7484 10.0389 22.5964 9.87233 22.4077L1.3254 12.6499C1.06513 12.3589 0.922852 11.9939 0.922852 11.6172C0.922852 11.2405 1.06513 10.8755 1.3254 10.5845L10.1731 0.826643C10.4735 0.494524 10.9051 0.285666 11.373 0.246017C11.841 0.206369 12.3068 0.339176 12.6682 0.615223C13.0296 0.89127 13.2568 1.28795 13.3 1.71798C13.3431 2.14802 13.1986 2.5762 12.8983 2.90832L4.98837 11.6253L12.6328 20.3423C12.8492 20.5811 12.9867 20.8717 13.0289 21.18C13.0712 21.4883 13.0165 21.8012 12.8713 22.0818C12.7261 22.3624 12.4964 22.5989 12.2096 22.7633C11.9227 22.9277 11.5906 23.0131 11.2526 23.0095Z" fill="black"/>
</svg>
